<svg width="160" height="40" viewBox="0 0 160 40" fill="none" xmlns="http://www.w3.org/2000/svg">
<circle opacity="0.1" cx="20" cy="20" r="19.5" stroke="#080415"/>
<path d="M22.4465 15.6615H26.439V16.6258H22.4465V15.6615ZM18.446 19.477C19.3286 19.0566 19.7909 18.417 19.7909 17.4288C19.7909 15.4742 18.33 15 16.6429 15H12V24.8107H16.773C18.5621 24.8107 20.2411 23.954 20.2411 21.9615C20.2411 20.7302 19.6568 19.8197 18.446 19.477ZM14.1654 16.6736H16.1966C16.9791 16.6736 17.6816 16.8908 17.6816 17.7954C17.6816 18.6282 17.1352 18.9629 16.3607 18.9629H14.1654V16.6736ZM16.4768 23.145H14.1634V20.4433H16.5228C17.4754 20.4433 18.0778 20.8398 18.0778 21.844C18.0778 22.8322 17.3593 23.145 16.4768 23.145ZM28 21.3618C28 19.2598 26.7652 17.5085 24.5318 17.5085C22.3605 17.5085 20.8836 19.1363 20.8836 21.2702C20.8836 23.4818 22.2824 25 24.5318 25C26.2349 25 27.3376 24.2369 27.8679 22.6091H26.1408C25.9527 23.2168 25.1882 23.5356 24.5939 23.5356C23.4452 23.5356 22.8448 22.8661 22.8448 21.7284H27.986C27.992 21.6109 28 21.4873 28 21.3618ZM22.8448 20.4971C22.9068 19.5627 23.5332 18.9789 24.4698 18.9789C25.4544 18.9789 25.9467 19.5547 26.0328 20.4971H22.8448Z" fill="#080415"/>
<circle opacity="0.1" cx="80" cy="20" r="19.5" stroke="#080415"/>
<path d="M86.7355 16.0959C86.0402 14.9035 85.0967 13.9593 83.9036 13.2648C82.7113 12.5702 81.4101 12.2225 79.9999 12.2225C78.5898 12.2225 77.2886 12.5702 76.0955 13.2648C74.9032 13.9593 73.9589 14.9035 73.2644 16.0959C72.5698 17.2882 72.2222 18.5902 72.2222 20.0003C72.2222 21.4104 72.5691 22.7124 73.2644 23.9048C73.9597 25.0979 74.9032 26.0413 76.0963 26.7359C77.2886 27.4304 78.5898 27.7781 79.9999 27.7781C81.4101 27.7781 82.7113 27.4304 83.9044 26.7359C85.0967 26.0413 86.0409 25.0979 86.7363 23.9048C87.4308 22.7124 87.7777 21.4104 87.7777 20.0003C87.7777 18.5902 87.4308 17.2882 86.7355 16.0959ZM79.9999 13.5136C81.5555 13.5136 82.9337 14.0114 84.1377 15.0062C83.4222 15.9193 82.3597 16.6706 80.9488 17.2618C80.1695 15.8516 79.3248 14.6741 78.4125 13.7306C78.9429 13.586 79.4703 13.5136 79.9999 13.5136ZM74.9522 15.9559C75.5386 15.2193 76.2402 14.6445 77.0607 14.2292C78.0034 15.1633 78.8691 16.3292 79.6585 17.7292C78.1029 18.1959 76.4587 18.4292 74.7266 18.4292C74.2809 18.4292 73.9442 18.4191 73.7155 18.3981C73.9543 17.506 74.3665 16.6924 74.9522 15.9559ZM73.5133 20.0003C73.5133 19.9583 73.5156 19.907 73.5211 19.8448C73.5265 19.7825 73.5288 19.7312 73.5288 19.6892C73.7264 19.7001 74.0274 19.7048 74.4318 19.7048C76.5054 19.7048 78.4343 19.4193 80.2177 18.8492C80.3632 19.1393 80.5141 19.466 80.6688 19.8292C79.6422 20.0571 78.5891 20.6116 77.5103 21.4936C76.4315 22.3756 75.6444 23.3035 75.1466 24.2781C74.0577 23.0438 73.5133 21.6181 73.5133 20.0003ZM79.9999 26.487C78.5268 26.487 77.2046 26.0304 76.0325 25.1189C76.4999 24.1956 77.2178 23.3129 78.1877 22.4736C79.1568 21.6336 80.1189 21.1102 81.0733 20.9025C81.6737 22.5615 82.0789 24.2773 82.2866 26.0514C81.5291 26.3415 80.7668 26.487 79.9999 26.487ZM85.5066 23.407C84.9886 24.2361 84.3197 24.9159 83.4999 25.4455C83.3133 23.8278 82.9555 22.2512 82.4274 20.7159C83.1523 20.6645 83.8002 20.6381 84.3718 20.6381C84.9933 20.6381 85.6832 20.6645 86.4399 20.7159C86.3357 21.6803 86.0246 22.5771 85.5066 23.407ZM84.5422 19.5181C83.6399 19.5181 82.8054 19.5546 82.0377 19.627C81.8402 19.1191 81.6644 18.6991 81.5088 18.367C83.1157 17.6623 84.2559 16.8068 84.9303 15.8003C85.8636 16.9001 86.3723 18.1546 86.4547 19.5648C85.8232 19.5336 85.1854 19.5181 84.5422 19.5181Z" fill="#080415"/>
<circle opacity="0.1" cx="140" cy="20" r="19.5" stroke="#080415"/>
<path d="M147.491 16.7237C147.455 15.9102 147.324 15.3509 147.135 14.8662C146.941 14.3518 146.642 13.8912 146.25 13.5084C145.867 13.1195 145.404 12.8174 144.895 12.626C144.408 12.4376 143.851 12.306 143.038 12.2701C142.218 12.2312 141.958 12.2222 139.879 12.2222C137.8 12.2222 137.54 12.2312 136.724 12.2671C135.91 12.303 135.351 12.4346 134.866 12.623C134.352 12.8174 133.891 13.1165 133.508 13.5084C133.119 13.8912 132.817 14.3548 132.626 14.8633C132.437 15.3509 132.306 15.9071 132.27 16.7207C132.231 17.5403 132.222 17.8005 132.222 19.8792C132.222 21.958 132.231 22.2182 132.267 23.0347C132.303 23.8483 132.435 24.4076 132.623 24.8922C132.817 25.4066 133.119 25.8672 133.508 26.2501C133.891 26.6389 134.355 26.941 134.863 27.1324C135.351 27.3209 135.907 27.4524 136.721 27.4883C137.537 27.5243 137.797 27.5332 139.876 27.5332C141.955 27.5332 142.215 27.5243 143.032 27.4883C143.845 27.4524 144.405 27.3209 144.889 27.1324C145.918 26.7346 146.732 25.9211 147.129 24.8922C147.318 24.4046 147.449 23.8483 147.485 23.0347C147.521 22.2182 147.53 21.958 147.53 19.8792C147.53 17.8005 147.527 17.5403 147.491 16.7237ZM146.112 22.9749C146.08 23.7227 145.954 24.1265 145.849 24.3956C145.592 25.0627 145.063 25.5921 144.396 25.8493C144.126 25.954 143.72 26.0796 142.975 26.1124C142.167 26.1484 141.925 26.1573 139.882 26.1573C137.839 26.1573 137.594 26.1484 136.789 26.1124C136.042 26.0796 135.638 25.954 135.369 25.8493C135.037 25.7267 134.735 25.5322 134.489 25.278C134.235 25.0297 134.041 24.7306 133.918 24.3987C133.813 24.1295 133.688 23.7227 133.655 22.978C133.619 22.1704 133.61 21.9281 133.61 19.8852C133.61 17.8423 133.619 17.5971 133.655 16.7925C133.688 16.0448 133.813 15.641 133.918 15.3718C134.041 15.0397 134.235 14.7377 134.492 14.4924C134.741 14.2381 135.04 14.0437 135.372 13.9211C135.641 13.8165 136.048 13.6909 136.792 13.6579C137.6 13.622 137.842 13.613 139.885 13.613C141.931 13.613 142.173 13.622 142.978 13.6579C143.726 13.6909 144.129 13.8165 144.399 13.9211C144.731 14.0437 145.033 14.2381 145.278 14.4924C145.532 14.7406 145.727 15.0397 145.849 15.3718C145.954 15.641 146.08 16.0477 146.112 16.7925C146.148 17.6001 146.157 17.8423 146.157 19.8852C146.157 21.9281 146.148 22.1673 146.112 22.9749Z" fill="#080415"/>
<path d="M139.878 15.9462C137.707 15.9462 135.945 17.7079 135.945 19.8794C135.945 22.0509 137.707 23.8126 139.878 23.8126C142.05 23.8126 143.812 22.0509 143.812 19.8794C143.812 17.7079 142.05 15.9462 139.878 15.9462ZM139.878 22.4308C138.47 22.4308 137.327 21.2882 137.327 19.8794C137.327 18.4706 138.47 17.3281 139.878 17.3281C141.287 17.3281 142.43 18.4706 142.43 19.8794C142.43 21.2882 141.287 22.4308 139.878 22.4308Z" fill="#080415"/>
<path d="M144.886 15.7904C144.886 16.2973 144.474 16.7084 143.967 16.7084C143.46 16.7084 143.049 16.2973 143.049 15.7904C143.049 15.2833 143.46 14.8723 143.967 14.8723C144.474 14.8723 144.886 15.2833 144.886 15.7904Z" fill="#080415"/>
</svg>
